<?xml version="1.0" standalone="no"?>
<!DOCTYPE svg PUBLIC "-//W3C//DTD SVG 1.1//EN"
"http://www.w3.org/Graphics/SVG/1.1/DTD/svg11.dtd">
<svg width="12.9023cm" height="4.49661cm" viewBox="-98.5559 85.0169 129.023 44.9661" xmlns="http://www.w3.org/2000/svg" version = "1.1">
<title>Untitled</title>
<desc> made with 123D Design </desc>
<path d="M 10.8621 107.5 L 10.6978 107.785 L 5.93189 116.039 L 5.60321 116.039 L -3.9285 116.039 L -4.09284 115.755 L -8.8587 107.5 L -8.69436 107.215 L -3.9285 98.9606 L -3.59982 98.9606 L 5.93189 98.9606 L 6.09623 99.2453 z  M -90.4942 112.877 L -89.5372 113.71 L -89.4998 113.733 L -88.415 114.391 L -88.3743 114.407 L -87.1934 114.872 L -87.1506 114.881 L -85.9079 115.137 L -85.8641 115.139 L -84.5959 115.181 L -84.5526 115.175 L -83.2957 115 L -81.1282 115 L -18.2693 115 L -18.0203 115.431 L -10.7989 127.939 L -10.0122 127.939 L 12.8022 127.939 L 13.1956 127.258 L 24.6028 107.5 L 24.2094 106.819 L 12.8022 87.0609 L 12.0155 87.0609 L -10.7989 87.0609 L -11.0479 87.4922 L -18.2693 100 L -20.4368 100 L -83.2957 100 L -83.3391 99.994 L -84.5959 99.8194 L -84.6397 99.8209 L -85.9079 99.8626 L -85.9507 99.8714 L -87.1934 100.128 L -87.2341 100.144 L -88.415 100.609 L -88.4524 100.631 L -89.5372 101.29 L -89.5702 101.318 L -90.5272 102.152 L -90.5548 102.186 L -91.3562 103.169 L -91.3776 103.208 L -92 104.313 L -92.0147 104.355 L -92.4399 105.55 L -92.4474 105.593 L -92.6631 106.844 L -92.6631 106.887 L -92.6631 108.156 L -92.6557 108.199 L -92.4399 109.45 L -92.4253 109.491 L -92 110.687 L -91.9785 110.725 L -91.3562 111.831 L -91.3285 111.865 L -90.5272 112.848 z  " fill= "none" stroke="rgb(0,0,255)" stroke-width="0.05mm" />
</svg>
